<svg width="45" height="45" viewBox="0 0 45 45" fill="none" xmlns="http://www.w3.org/2000/svg">
<path d="M23.146 9.93018C24.0684 9.93018 24.9035 10.4424 25.3647 11.1986C25.589 11.5645 25.7386 12.0158 25.7012 12.4914C25.6763 12.8573 25.7884 13.2232 25.9879 13.5647C26.6235 14.6014 28.032 14.9917 29.1289 14.4063C30.3628 13.6989 31.9209 14.1258 32.6313 15.3332L33.4665 16.7724C34.1894 17.9799 33.7905 19.5288 32.5441 20.224C31.4846 20.846 31.1107 22.2242 31.7464 23.2731C31.9458 23.6025 32.1702 23.883 32.5192 24.0537C32.9554 24.2855 33.292 24.6514 33.5288 25.0172C33.99 25.7734 33.9526 26.7004 33.5038 27.5175L32.6313 28.9811C32.1702 29.7617 31.3101 30.2495 30.4252 30.2495C29.9889 30.2495 29.5028 30.1276 29.1039 29.8836C28.7799 29.6763 28.4059 29.6031 28.0071 29.6031C26.7731 29.6031 25.7386 30.6154 25.7012 31.8229C25.7012 33.2255 24.5545 34.3232 23.1211 34.3232H21.4259C19.9801 34.3232 18.8334 33.2255 18.8334 31.8229C18.8084 30.6154 17.7739 29.6031 16.5399 29.6031C16.1286 29.6031 15.7547 29.6763 15.4431 29.8836C15.0442 30.1276 14.5456 30.2495 14.1219 30.2495C13.2244 30.2495 12.3644 29.7617 11.9032 28.9811L11.0432 27.5175C10.582 26.7248 10.5571 25.7734 11.0182 25.0172C11.2177 24.6514 11.5916 24.2855 12.0154 24.0537C12.3644 23.883 12.5887 23.6025 12.8006 23.2731C13.4239 22.2242 13.0499 20.846 11.9905 20.224C10.7565 19.5288 10.3576 17.9799 11.0681 16.7724L11.9032 15.3332C12.6261 14.1258 14.1717 13.6989 15.4181 14.4063C16.5025 14.9917 17.911 14.6014 18.5467 13.5647C18.7461 13.2232 18.8583 12.8573 18.8334 12.4914C18.8084 12.0158 18.9455 11.5645 19.1824 11.1986C19.6435 10.4424 20.4786 9.95457 21.3885 9.93018H23.146ZM22.286 18.6873C20.3291 18.6873 18.7461 20.224 18.7461 22.1389C18.7461 24.0537 20.3291 25.5783 22.286 25.5783C24.2429 25.5783 25.7884 24.0537 25.7884 22.1389C25.7884 20.224 24.2429 18.6873 22.286 18.6873Z" fill="#5D7285"/>
</svg>
